HIERARCHY
ROOT joint_Root
{
	OFFSET 0.0 0.0 0.0
	CHANNELS 6 Xposition Yposition Zposition Zrotation Xrotation Yrotation 
	JOINT Hips
	{
		OFFSET -0.726466 93.3139 -2.00062
		CHANNELS 6 Xposition Yposition Zposition Zrotation Xrotation Yrotation 
		JOINT Spine
		{
			OFFSET 15.7357 0.0 0.0
			CHANNELS 6 Xposition Yposition Zposition Zrotation Xrotation Yrotation 
			JOINT Chest
			{
				OFFSET 8.98455 -0.406207 0.0
				CHANNELS 6 Xposition Yposition Zposition Zrotation Xrotation Yrotation 
				JOINT Neck
				{
					OFFSET 16.3773 0.0 0.0
					CHANNELS 6 Xposition Yposition Zposition Zrotation Xrotation Yrotation 
					JOINT Head
					{
						OFFSET 6.45672 0.0 0.0
						CHANNELS 6 Xposition Yposition Zposition Zrotation Xrotation Yrotation 
						End Site
						{
							OFFSET 0.0 0.0 0.0
						}
					}
				}
				JOINT Shoulder_L
				{
					OFFSET 12.9942 -0.242716 4.98039
					CHANNELS 6 Xposition Yposition Zposition Zrotation Xrotation Yrotation 
					JOINT UpperArm_L
					{
						OFFSET 5.34809 0.0 0.0
						CHANNELS 6 Xposition Yposition Zposition Zrotation Xrotation Yrotation 
						JOINT LowerArm_L
						{
							OFFSET 24.3286 1.87007e-05 0.0
							CHANNELS 6 Xposition Yposition Zposition Zrotation Xrotation Yrotation 
							JOINT Hand_L
							{
								OFFSET 22.2916 0.0 0.0
								CHANNELS 6 Xposition Yposition Zposition Zrotation Xrotation Yrotation 
								End Site
								{
									OFFSET 0.0 0.0 0.0
								}
							}
						}
					}
				}
				JOINT Shoulder_R
				{
					OFFSET 12.9945 -0.242716 -4.98039
					CHANNELS 6 Xposition Yposition Zposition Zrotation Xrotation Yrotation 
					JOINT UpperArm_R
					{
						OFFSET -5.34813 0.0 0.0
						CHANNELS 6 Xposition Yposition Zposition Zrotation Xrotation Yrotation 
						JOINT LowerArm_R
						{
							OFFSET -24.3289 0.000322201 0.0
							CHANNELS 6 Xposition Yposition Zposition Zrotation Xrotation Yrotation 
							JOINT Hand_R
							{
								OFFSET -22.2915 -0.000108084 0.0
								CHANNELS 6 Xposition Yposition Zposition Zrotation Xrotation Yrotation 
								End Site
								{
									OFFSET 0.0 0.0 0.0
								}
							}
						}
					}
				}
			}
		}
		JOINT UpperLeg_L
		{
			OFFSET -2.19248 -6.46944 0.0
			CHANNELS 6 Xposition Yposition Zposition Zrotation Xrotation Yrotation 
			JOINT LowerLeg_L
			{
				OFFSET 39.0811 0.0 -1.23785e-05
				CHANNELS 6 Xposition Yposition Zposition Zrotation Xrotation Yrotation 
				JOINT Foot_L
				{
					OFFSET 40.9854 0.0 -1.26872e-05
					CHANNELS 6 Xposition Yposition Zposition Zrotation Xrotation Yrotation 
					JOINT Toes_L
					{
						OFFSET 11.7543 0.0 0.0
						CHANNELS 6 Xposition Yposition Zposition Zrotation Xrotation Yrotation 
						End Site
						{
							OFFSET 0.0 0.0 0.0
						}
					}
				}
			}
		}
		JOINT UpperLeg_R
		{
			OFFSET -2.19251 6.46944 0.0
			CHANNELS 6 Xposition Yposition Zposition Zrotation Xrotation Yrotation 
			JOINT LowerLeg_R
			{
				OFFSET -39.0811 -0.00228153 -0.0401928
				CHANNELS 6 Xposition Yposition Zposition Zrotation Xrotation Yrotation 
				JOINT Foot_R
				{
					OFFSET -40.9854 0.0 0.0
					CHANNELS 6 Xposition Yposition Zposition Zrotation Xrotation Yrotation 
					JOINT Toes_R
					{
						OFFSET -11.7543 0.0 0.0
						CHANNELS 6 Xposition Yposition Zposition Zrotation Xrotation Yrotation 
						End Site
						{
							OFFSET 0.0 0.0 0.0
						}
					}
				}
			}
		}
	}
}
MOTION
Frames:	7
Frame Time:	0.0333333
0.000000 0.000000 0.000000 0.000000 0.000000 -0.000000 0.041510 91.955900 0.405498 88.063600 -1.498630 3.675030 15.735700 0.000005 -0.000001 81.609200 86.836100 -81.057900 8.984550 -0.406207 -0.000000 -1.501160 -0.967744 1.089660 16.377300 -0.000001 -0.000001 -1.357060 -2.433400 0.640280 6.456720 -0.000001 -0.000000 -2.092390 -2.978930 1.154560 12.994200 -0.242716 4.980390 -85.793800 -9.089510 -65.036200 5.348090 -0.000007 -0.000001 -57.148800 -51.639900 -54.156800 24.328600 0.000019 0.000005 -2.623060 -4.050890 -32.964200 22.291600 -0.000001 0.000005 20.387800 5.517930 -7.273770 12.994500 -0.242716 -4.980390 91.191900 -2.673630 -65.961600 -5.348130 -0.000001 -0.000004 -48.731900 -47.452400 -66.488400 -24.328900 0.000322 -0.000009 -2.214450 -4.421380 -26.627000 -22.291500 -0.000108 -0.000004 17.092400 5.348040 -1.318360 -2.192480 -6.469440 -0.000000 -169.532000 -17.488200 -1.834060 39.081100 -0.000007 -0.000012 -0.187508 0.454408 22.423400 40.985400 -0.000006 -0.000013 -7.023210 -3.113290 -64.767500 11.754300 -0.000000 0.000003 -0.000125 -0.001245 -16.625100 -2.192510 6.469440 -0.000001 173.017000 21.591600 -179.510000 -39.081100 -0.002282 -0.040193 -0.008286 0.032687 19.552000 -40.985400 0.000008 0.000006 -3.446890 0.559226 -63.674400 -11.754300 -0.000006 -0.000006 -0.003375 -0.044772 -18.394000
0.000000 0.000000 0.000000 0.000000 0.000000 -0.000000 -0.008385 91.962400 0.415639 88.055300 -1.334990 3.813920 15.735700 0.000005 -0.000001 81.677600 86.886900 -81.162100 8.984550 -0.406207 -0.000000 -1.601070 -0.943110 1.017650 16.377300 -0.000001 -0.000001 -1.516100 -2.433410 0.661589 6.456720 -0.000001 -0.000000 -2.067300 -2.908830 1.084500 12.994200 -0.242716 4.980390 -85.656500 -9.340410 -64.920800 5.348090 -0.000007 -0.000001 -56.763700 -51.249300 -58.429300 24.328600 0.000019 0.000005 -2.733360 -4.082280 -33.848000 22.291600 -0.000001 0.000005 20.418700 5.520870 -7.399230 12.994500 -0.242716 -4.980390 91.349500 -3.010340 -65.840500 -5.348130 -0.000001 -0.000004 -49.097600 -47.606800 -70.595200 -24.328900 0.000322 -0.000009 -2.291980 -4.369030 -27.705400 -22.291500 -0.000108 -0.000004 17.190100 5.352640 -1.456820 -2.192480 -6.469440 -0.000000 -169.451000 -17.387100 -1.679960 39.081100 -0.000007 -0.000012 -0.187336 0.455719 22.346800 40.985400 -0.000006 -0.000013 -7.040090 -3.044630 -64.706700 11.754300 -0.000000 0.000003 -0.000136 -0.001340 -16.628600 -2.192510 6.469440 -0.000001 173.015000 21.716800 -179.334000 -39.081100 -0.002282 -0.040193 -0.003971 0.020513 19.572100 -40.985400 0.000008 0.000006 -3.242080 0.467949 -63.727700 -11.754300 -0.000006 -0.000006 -0.003234 -0.043222 -18.330900
0.000000 0.000000 0.000000 0.000000 0.000000 -0.000000 -0.062327 91.955000 0.397954 88.039300 -1.169950 3.850160 15.735700 0.000005 -0.000001 82.141000 86.968100 -81.690300 8.984550 -0.406207 -0.000000 -1.755790 -0.866366 0.887935 16.377300 -0.000001 -0.000001 -1.580090 -2.471510 0.724807 6.456720 -0.000001 -0.000000 -2.197370 -2.849830 1.155690 12.994200 -0.242716 4.980390 -85.471200 -9.661150 -64.733700 5.348090 -0.000007 -0.000001 -56.491800 -50.877500 -63.445300 24.328600 0.000019 0.000005 -2.759570 -4.007860 -34.592000 22.291600 -0.000001 0.000005 20.331700 5.521990 -7.447170 12.994500 -0.242716 -4.980390 91.520100 -3.373000 -65.722100 -5.348130 -0.000001 -0.000004 -49.773900 -47.900800 -75.074000 -24.328900 0.000322 -0.000009 -2.401260 -4.347000 -28.942400 -22.291500 -0.000108 -0.000004 16.963900 5.354910 -1.525240 -2.192480 -6.469440 -0.000000 -169.412000 -17.241400 -1.729610 39.081100 -0.000007 -0.000012 -0.187090 0.453844 22.403400 40.985400 -0.000006 -0.000013 -7.058280 -3.004500 -64.694100 11.754300 -0.000000 0.000003 -0.000128 -0.001267 -16.625900 -2.192510 6.469440 -0.000001 173.043000 21.812900 -179.304000 -39.081100 -0.002282 -0.040193 -0.003505 0.019126 19.644700 -40.985400 0.000008 0.000006 -3.205290 0.417823 -63.792500 -11.754300 -0.000006 -0.000006 -0.003497 -0.046105 -18.448300
0.000000 0.000000 0.000000 0.000000 0.000000 -0.000000 -0.112373 91.967700 0.376586 88.001000 -1.089070 3.874150 15.735700 0.000005 -0.000001 82.338400 87.018700 -81.913200 8.984550 -0.406207 -0.000000 -1.853610 -0.830422 0.836876 16.377300 -0.000001 -0.000001 -1.760800 -2.437860 0.739554 6.456720 -0.000001 -0.000000 -2.274500 -2.825690 1.158540 12.994200 -0.242716 4.980390 -85.282300 -9.897720 -64.353800 5.348090 -0.000007 -0.000001 -56.030800 -50.529700 -68.732400 24.328600 0.000019 0.000005 -2.559550 -3.622480 -35.280400 22.291600 -0.000001 0.000005 20.331400 5.520180 -7.369470 12.994500 -0.242716 -4.980390 91.728200 -3.842230 -65.759900 -5.348130 -0.000001 -0.000004 -50.814300 -48.222700 -80.218500 -24.328900 0.000322 -0.000009 -2.474600 -4.302120 -29.935400 -22.291500 -0.000108 -0.000004 16.991600 5.363580 -1.789050 -2.192480 -6.469440 -0.000000 -169.333000 -17.180700 -1.687890 39.081100 -0.000007 -0.000012 -0.186531 0.454549 22.311800 40.985400 -0.000006 -0.000013 -7.074100 -2.935900 -64.618200 11.754300 -0.000000 0.000003 -0.000137 -0.001343 -16.628700 -2.192510 6.469440 -0.000001 173.139000 21.918600 -179.287000 -39.081100 -0.002282 -0.040193 0.002838 0.001355 19.645000 -40.985400 0.000008 0.000006 -2.925540 0.366421 -63.804200 -11.754300 -0.000006 -0.000006 -0.003283 -0.043762 -18.352900
0.000000 0.000000 0.000000 0.000000 0.000000 -0.000000 -0.156770 91.972800 0.343740 87.977800 -1.013510 3.940600 15.735700 0.000005 -0.000001 82.719900 87.043200 -82.324000 8.984550 -0.406207 -0.000000 -1.897370 -0.782556 0.778630 16.377300 -0.000001 -0.000001 -1.876310 -2.370150 0.731702 6.456720 -0.000001 -0.000000 -2.343670 -2.753940 1.163840 12.994200 -0.242716 4.980390 -85.084900 -10.172200 -64.037100 5.348090 -0.000007 -0.000001 -56.047900 -50.395600 -74.480300 24.328600 0.000019 0.000005 -2.415880 -3.295970 -36.272900 22.291600 -0.000001 0.000005 20.081400 5.518800 -7.311030 12.994500 -0.242716 -4.980390 91.953300 -4.361900 -65.847900 -5.348130 -0.000001 -0.000004 -52.322000 -48.523800 -85.866200 -24.328900 0.000322 -0.000009 -2.476770 -4.125390 -31.006300 -22.291500 -0.000108 -0.000004 16.994800 5.371030 -2.018350 -2.192480 -6.469440 -0.000000 -169.274000 -17.106900 -1.659950 39.081100 -0.000007 -0.000012 -0.187289 0.456873 22.290700 40.985400 -0.000006 -0.000013 -7.098260 -2.959540 -64.561900 11.754300 -0.000000 0.000003 -0.000128 -0.001270 -16.626000 -2.192510 6.469440 -0.000001 173.169000 22.007200 -179.219000 -39.081100 -0.002282 -0.040193 0.004494 -0.003283 19.639700 -40.985400 0.000008 0.000006 -2.866740 0.353543 -63.800500 -11.754300 -0.000006 -0.000006 -0.003398 -0.045029 -18.404500
0.000000 0.000000 0.000000 0.000000 0.000000 -0.000000 -0.203588 91.984200 0.295482 87.934800 -0.973053 3.974890 15.735700 0.000005 -0.000001 83.326600 87.054500 -82.957000 8.984550 -0.406207 -0.000000 -1.912610 -0.715625 0.727173 16.377300 -0.000001 -0.000001 -1.988400 -2.337420 0.684016 6.456720 -0.000001 -0.000000 -2.495420 -2.743220 1.229130 12.994200 -0.242716 4.980390 -84.892900 -10.413200 -63.689000 5.348090 -0.000007 -0.000001 -56.189400 -50.430800 -80.612000 24.328600 0.000019 0.000005 -2.060120 -2.724990 -37.113200 22.291600 -0.000001 0.000005 20.093600 5.523560 -7.514500 12.994500 -0.242716 -4.980390 92.191400 -4.896760 -65.853700 -5.348130 -0.000001 -0.000004 -54.131400 -48.636200 -91.845800 -24.328900 0.000322 -0.000009 -2.407550 -3.827060 -32.196600 -22.291500 -0.000108 -0.000004 17.159000 5.382660 -2.382250 -2.192480 -6.469440 -0.000000 -169.213000 -17.034900 -1.649170 39.081100 -0.000007 -0.000012 -0.184610 0.451337 22.246200 40.985400 -0.000006 -0.000013 -7.119370 -2.994030 -64.498700 11.754300 -0.000000 0.000003 -0.000124 -0.001233 -16.624700 -2.192510 6.469440 -0.000001 173.262000 22.047700 -179.212000 -39.081100 -0.002282 -0.040193 0.008496 -0.014505 19.629800 -40.985400 0.000008 0.000006 -2.666640 0.315417 -63.785000 -11.754300 -0.000006 -0.000006 -0.003434 -0.045422 -18.420500
0.000000 0.000000 0.000000 0.000000 0.000000 -0.000000 -0.227278 92.002500 0.244040 87.906100 -0.963992 3.969590 15.735700 0.000005 -0.000001 83.987200 87.070600 -83.643600 8.984550 -0.406207 -0.000000 -1.937540 -0.642637 0.676350 16.377300 -0.000001 -0.000001 -2.027040 -2.315700 0.641914 6.456720 -0.000001 -0.000000 -2.724930 -2.799180 1.290420 12.994200 -0.242716 4.980390 -84.697000 -10.648700 -63.329000 5.348090 -0.000007 -0.000001 -56.861400 -50.472300 -87.122600 24.328600 0.000019 0.000005 -1.369180 -1.744250 -38.142400 22.291600 -0.000001 0.000005 20.010600 5.528010 -7.707630 12.994500 -0.242716 -4.980390 92.432700 -5.444070 -65.877000 -5.348130 -0.000001 -0.000004 -55.796700 -48.624400 -97.738100 -24.328900 0.000322 -0.000009 -2.219900 -3.355430 -33.503700 -22.291500 -0.000108 -0.000004 17.267600 5.390220 -2.622170 -2.192480 -6.469440 -0.000000 -169.187000 -17.035800 -1.654550 39.081100 -0.000007 -0.000012 -0.182297 0.447612 22.159600 40.985400 -0.000006 -0.000013 -7.114860 -3.000510 -64.412400 11.754300 -0.000000 0.000003 -0.000114 -0.001151 -16.621600 -2.192510 6.469440 -0.000001 173.349000 22.079600 -179.230000 -39.081100 -0.002282 -0.040193 0.013440 -0.028478 19.559600 -40.985400 0.000008 0.000006 -2.545530 0.284294 -63.722300 -11.754300 -0.000006 -0.000006 -0.003518 -0.046330 -18.457500
